<?xml version="1.0" standalone="no"?>
<!DOCTYPE svg PUBLIC "-//W3C//DTD SVG 20010904//EN"
 "http://www.w3.org/TR/2001/REC-SVG-20010904/DTD/svg10.dtd">
<svg version="1.0" xmlns="http://www.w3.org/2000/svg"
 width="512.000000pt" height="512.000000pt" viewBox="0 0 512.000000 512.000000"
 preserveAspectRatio="xMidYMid meet">

<g transform="translate(0.000000,512.000000) scale(0.100000,-0.100000)"
fill="#000000" stroke="none">
<path d="M2470 5113 c-636 -19 -1257 -290 -1715 -748 -411 -411 -668 -943
-735 -1525 -14 -122 -14 -438 0 -560 53 -456 229 -900 498 -1255 259 -341 551
-583 924 -765 711 -348 1540 -346 2247 5 768 382 1278 1082 1407 1930 26 168
26 562 1 725 -74 475 -256 892 -543 1245 -222 273 -513 506 -834 670 -392 199
-806 291 -1250 278z m240 -883 l0 -290 -150 0 -150 0 0 290 0 290 150 0 150 0
0 -290z m-1222 -383 l202 -202 -108 -108 -107 -107 -205 205 -205 205 105 105
c58 58 107 105 110 105 3 0 96 -91 208 -203z m2397 163 l39 -40 -199 -200
c-110 -110 -204 -200 -209 -200 -6 0 -27 17 -48 37 l-38 37 202 203 c112 112
205 203 208 203 3 0 24 -18 45 -40z m-1075 -265 c200 -45 396 -142 530 -262
l52 -46 -853 -853 c-826 -826 -854 -853 -873 -836 -39 35 -134 171 -179 259
-225 435 -169 958 141 1322 200 234 431 370 722 426 99 19 357 13 460 -10z
m726 -916 c276 -114 486 -382 539 -686 18 -102 19 -155 4 -260 -52 -385 -339
-693 -718 -769 -113 -22 -315 -15 -416 15 -278 83 -497 282 -597 541 -14 36
-29 78 -32 94 l-7 29 48 -43 c238 -209 593 -243 882 -84 97 54 234 196 288
299 150 287 115 603 -96 864 l-36 44 35 -8 c19 -4 67 -20 106 -36z m-2356
-269 l0 -150 -290 0 -290 0 0 150 0 150 290 0 290 0 0 -150z m175 -1160 l-205
-205 -42 43 -43 42 205 205 205 205 42 -42 43 -43 -205 -205z"/>
</g>
</svg>
